<mxfile host="drawio-plugin" modified="2023-01-18T11:14:55.434Z" agent="5.0 (Macintosh; Intel Mac OS X 10_15_7) AppleWebKit/537.36 (KHTML, like Gecko) Chrome/104.0.5112.102 Safari/537.36" etag="LrlU3hf7GyXap1adeFCp" version="20.5.3" type="embed"><diagram id="23iRSUPoRavnBvh4doch" name="Page-1"><mxGraphModel dx="854" dy="749" grid="1" gridSize="10" guides="1" tooltips="1" connect="1" arrows="1" fold="1" page="1" pageScale="1" pageWidth="827" pageHeight="1169" math="0" shadow="0"><root><mxCell id="0"/><mxCell id="1" parent="0"/><mxCell id="2" value="" style="rounded=0;whiteSpace=wrap;html=1;" vertex="1" parent="1"><mxGeometry x="240" y="70" width="530" height="370" as="geometry"/></mxCell><mxCell id="3" value="로그인 페이지" style="text;html=1;strokeColor=none;fillColor=none;align=center;verticalAlign=middle;whiteSpace=wrap;rounded=0;" vertex="1" parent="1"><mxGeometry x="450" y="90" width="90" height="30" as="geometry"/></mxCell><mxCell id="4" value="" style="rounded=0;whiteSpace=wrap;html=1;" vertex="1" parent="1"><mxGeometry x="360" y="170" width="280" height="150" as="geometry"/></mxCell><mxCell id="5" value="id" style="rounded=0;whiteSpace=wrap;html=1;" vertex="1" parent="1"><mxGeometry x="390" y="190" width="220" height="30" as="geometry"/></mxCell><mxCell id="6" value="pw" style="rounded=0;whiteSpace=wrap;html=1;" vertex="1" parent="1"><mxGeometry x="390" y="230" width="220" height="30" as="geometry"/></mxCell><mxCell id="7" value="로그인" style="shape=tape;whiteSpace=wrap;html=1;" vertex="1" parent="1"><mxGeometry x="390" y="270" width="220" height="50" as="geometry"/></mxCell><mxCell id="8" value="회원가입" style="shape=tape;whiteSpace=wrap;html=1;" vertex="1" parent="1"><mxGeometry x="465" y="320" width="80" height="50" as="geometry"/></mxCell><mxCell id="9" value="LoginUserDto :&amp;nbsp;&lt;br&gt;input text id&lt;br&gt;input password pw" style="whiteSpace=wrap;html=1;" vertex="1" parent="1"><mxGeometry x="294" y="470" width="226" height="60" as="geometry"/></mxCell><mxCell id="10" value="" style="rounded=0;whiteSpace=wrap;html=1;" vertex="1" parent="1"><mxGeometry x="240" y="680" width="520" height="380" as="geometry"/></mxCell><mxCell id="11" value="회원가입 페이지" style="text;html=1;strokeColor=none;fillColor=none;align=center;verticalAlign=middle;whiteSpace=wrap;rounded=0;" vertex="1" parent="1"><mxGeometry x="475" y="700" width="95" height="30" as="geometry"/></mxCell><mxCell id="12" value="RegisterUserDto&lt;br&gt;&lt;br&gt;input text username&lt;br&gt;input password pw&lt;br&gt;input text name&lt;br&gt;input text email&lt;br&gt;&amp;nbsp;" style="rounded=0;whiteSpace=wrap;html=1;" vertex="1" parent="1"><mxGeometry x="355" y="750" width="315" height="150" as="geometry"/></mxCell><mxCell id="13" value="가입하기" style="shape=tape;whiteSpace=wrap;html=1;" vertex="1" parent="1"><mxGeometry x="354" y="900" width="306" height="70" as="geometry"/></mxCell><mxCell id="14" value="* query : &lt;br&gt;select -&amp;gt; username, email 중복확인&lt;br&gt;insert -&amp;gt; registerUser" style="text;html=1;strokeColor=none;fillColor=none;align=center;verticalAlign=middle;whiteSpace=wrap;rounded=0;" vertex="1" parent="1"><mxGeometry x="354" y="970" width="256" height="30" as="geometry"/></mxCell><mxCell id="15" value="" style="rounded=0;whiteSpace=wrap;html=1;" vertex="1" parent="1"><mxGeometry x="950" y="70" width="550" height="360" as="geometry"/></mxCell><mxCell id="16" value="세션에 로그인 정보 저장" style="whiteSpace=wrap;html=1;" vertex="1" parent="1"><mxGeometry x="580" y="470" width="120" height="60" as="geometry"/></mxCell><mxCell id="17" value="user.awarerole == false 일때 메인페이지" style="text;html=1;strokeColor=none;fillColor=none;align=center;verticalAlign=middle;whiteSpace=wrap;rounded=0;" vertex="1" parent="1"><mxGeometry x="1050" y="40" width="320" height="30" as="geometry"/></mxCell><mxCell id="18" value="n회차&amp;nbsp; 마니또 매치에서 나의 역할은?" style="rounded=0;whiteSpace=wrap;html=1;" vertex="1" parent="1"><mxGeometry x="1010" y="130" width="410" height="230" as="geometry"/></mxCell><mxCell id="19" value="확인하기&lt;br&gt;update user.awarerole == true" style="shape=tape;whiteSpace=wrap;html=1;" vertex="1" parent="1"><mxGeometry x="1112.5" y="260" width="225" height="100" as="geometry"/></mxCell><mxCell id="20" value="user.awarerole == true 일때 메인페이지" style="text;html=1;strokeColor=none;fillColor=none;align=center;verticalAlign=middle;whiteSpace=wrap;rounded=0;" vertex="1" parent="1"><mxGeometry x="1070" y="470" width="320" height="30" as="geometry"/></mxCell><mxCell id="21" value="" style="rounded=0;whiteSpace=wrap;html=1;" vertex="1" parent="1"><mxGeometry x="935" y="510" width="550" height="360" as="geometry"/></mxCell><mxCell id="22" value="receiver, donator 아무것도 아님&lt;br&gt;&lt;br&gt;당신의 역할은 OOO입니다." style="text;html=1;strokeColor=none;fillColor=none;align=center;verticalAlign=middle;whiteSpace=wrap;rounded=0;" vertex="1" parent="1"><mxGeometry x="1040" y="530" width="290" height="30" as="geometry"/></mxCell><mxCell id="23" value="" style="rounded=0;whiteSpace=wrap;html=1;" vertex="1" parent="1"><mxGeometry x="1000" y="600" width="430" height="210" as="geometry"/></mxCell><mxCell id="24" value="match1&amp;nbsp;" style="rounded=1;whiteSpace=wrap;html=1;" vertex="1" parent="1"><mxGeometry x="1020" y="630" width="360" height="60" as="geometry"/></mxCell><mxCell id="25" value="match2" style="rounded=1;whiteSpace=wrap;html=1;" vertex="1" parent="1"><mxGeometry x="1020" y="720" width="360" height="60" as="geometry"/></mxCell><mxCell id="26" value="" style="rounded=0;whiteSpace=wrap;html=1;" vertex="1" parent="1"><mxGeometry x="935" y="1020" width="550" height="360" as="geometry"/></mxCell><mxCell id="27" value="match 페이지에 들어갔을 때&lt;br&gt;session user 정보&lt;br&gt;match 정보" style="text;html=1;strokeColor=none;fillColor=none;align=center;verticalAlign=middle;whiteSpace=wrap;rounded=0;" vertex="1" parent="1"><mxGeometry x="930" y="970" width="330" height="30" as="geometry"/></mxCell><mxCell id="28" value="comment창" style="rounded=0;whiteSpace=wrap;html=1;" vertex="1" parent="1"><mxGeometry x="1010" y="1180" width="430" height="140" as="geometry"/></mxCell><mxCell id="29" value="벌칙(admin이 임의로 지정 혹은 여건이 되면 투표시스템)" style="rounded=0;whiteSpace=wrap;html=1;" vertex="1" parent="1"><mxGeometry x="1010" y="1090" width="120" height="60" as="geometry"/></mxCell><mxCell id="30" value="미션ㄱ" style="rounded=0;whiteSpace=wrap;html=1;" vertex="1" parent="1"><mxGeometry x="1150" y="1090" width="120" height="60" as="geometry"/></mxCell><mxCell id="31" value="남은시간" style="rounded=0;whiteSpace=wrap;html=1;" vertex="1" parent="1"><mxGeometry x="1010" y="1040" width="120" height="40" as="geometry"/></mxCell><mxCell id="32" value="" style="rounded=0;whiteSpace=wrap;html=1;" vertex="1" parent="1"><mxGeometry x="192" y="1440" width="580" height="380" as="geometry"/></mxCell><mxCell id="33" value="벌칙 등록" style="rounded=0;whiteSpace=wrap;html=1;" vertex="1" parent="1"><mxGeometry x="222" y="1480" width="260" height="60" as="geometry"/></mxCell><mxCell id="34" value="미션등록" style="rounded=0;whiteSpace=wrap;html=1;" vertex="1" parent="1"><mxGeometry x="246" y="1580" width="435" height="60" as="geometry"/></mxCell><mxCell id="35" value="보상등록" style="rounded=0;whiteSpace=wrap;html=1;" vertex="1" parent="1"><mxGeometry x="246" y="1670" width="435" height="60" as="geometry"/></mxCell><mxCell id="36" value="전체 유져 조회" style="rounded=0;whiteSpace=wrap;html=1;" vertex="1" parent="1"><mxGeometry x="246" y="1750" width="435" height="60" as="geometry"/></mxCell><mxCell id="37" value="현재마니또" style="rounded=0;whiteSpace=wrap;html=1;" vertex="1" parent="1"><mxGeometry x="492" y="1480" width="260" height="60" as="geometry"/></mxCell></root></mxGraphModel></diagram></mxfile>